<mxfile host="app.diagrams.net" modified="2023-11-03T11:43:12.170Z" agent="Mozilla/5.0 (Windows NT 10.0; Win64; x64; rv:109.0) Gecko/20100101 Firefox/119.0" etag="rT_OHx4aiXF1SOC9Oj9N" version="22.0.8" type="device">
  <diagram name="Page-1" id="AOKIrkyLKn85HgcAQ6co">
    <mxGraphModel dx="1687" dy="887" grid="1" gridSize="10" guides="1" tooltips="1" connect="1" arrows="1" fold="1" page="1" pageScale="1" pageWidth="1169" pageHeight="827" background="none" math="0" shadow="0">
      <root>
        <mxCell id="0" />
        <mxCell id="1" parent="0" />
        <mxCell id="ybBWGSZVluEt5AXJa25l-1" value="Node #1" style="shape=umlActor;verticalLabelPosition=bottom;verticalAlign=top;html=1;outlineConnect=0;" vertex="1" parent="1">
          <mxGeometry x="1061" y="90" width="36" height="70" as="geometry" />
        </mxCell>
        <mxCell id="ybBWGSZVluEt5AXJa25l-2" value="" style="endArrow=classic;startArrow=classic;html=1;rounded=0;dashed=1;dashPattern=12 12;" edge="1" parent="1">
          <mxGeometry width="50" height="50" relative="1" as="geometry">
            <mxPoint x="861" y="124.58" as="sourcePoint" />
            <mxPoint x="1061" y="124.58" as="targetPoint" />
          </mxGeometry>
        </mxCell>
        <mxCell id="ybBWGSZVluEt5AXJa25l-7" value="Node #2" style="shape=umlActor;verticalLabelPosition=bottom;verticalAlign=top;html=1;outlineConnect=0;" vertex="1" parent="1">
          <mxGeometry x="1061" y="200" width="36" height="70" as="geometry" />
        </mxCell>
        <mxCell id="ybBWGSZVluEt5AXJa25l-8" value="" style="endArrow=classic;startArrow=classic;html=1;rounded=0;dashed=1;dashPattern=12 12;" edge="1" parent="1">
          <mxGeometry width="50" height="50" relative="1" as="geometry">
            <mxPoint x="861" y="234.57999999999998" as="sourcePoint" />
            <mxPoint x="1061" y="234.57999999999998" as="targetPoint" />
          </mxGeometry>
        </mxCell>
        <mxCell id="ybBWGSZVluEt5AXJa25l-9" value="Node #3" style="shape=umlActor;verticalLabelPosition=bottom;verticalAlign=top;html=1;outlineConnect=0;" vertex="1" parent="1">
          <mxGeometry x="1061" y="310" width="36" height="70" as="geometry" />
        </mxCell>
        <mxCell id="ybBWGSZVluEt5AXJa25l-10" value="" style="endArrow=classic;startArrow=classic;html=1;rounded=0;dashed=1;dashPattern=12 12;" edge="1" parent="1">
          <mxGeometry width="50" height="50" relative="1" as="geometry">
            <mxPoint x="861" y="344.58" as="sourcePoint" />
            <mxPoint x="1061" y="344.58" as="targetPoint" />
          </mxGeometry>
        </mxCell>
        <mxCell id="ybBWGSZVluEt5AXJa25l-11" value="Node #n" style="shape=umlActor;verticalLabelPosition=bottom;verticalAlign=top;html=1;outlineConnect=0;" vertex="1" parent="1">
          <mxGeometry x="1061" y="520" width="36" height="70" as="geometry" />
        </mxCell>
        <mxCell id="ybBWGSZVluEt5AXJa25l-12" value="" style="endArrow=classic;startArrow=classic;html=1;rounded=0;dashed=1;dashPattern=12 12;" edge="1" parent="1">
          <mxGeometry width="50" height="50" relative="1" as="geometry">
            <mxPoint x="861" y="554.5799999999999" as="sourcePoint" />
            <mxPoint x="1061" y="554.5799999999999" as="targetPoint" />
          </mxGeometry>
        </mxCell>
        <mxCell id="ybBWGSZVluEt5AXJa25l-13" value="" style="endArrow=none;dashed=1;html=1;dashPattern=1 3;strokeWidth=2;rounded=0;" edge="1" parent="1">
          <mxGeometry width="50" height="50" relative="1" as="geometry">
            <mxPoint x="750" y="460" as="sourcePoint" />
            <mxPoint x="1100" y="460" as="targetPoint" />
          </mxGeometry>
        </mxCell>
        <mxCell id="ybBWGSZVluEt5AXJa25l-14" value="Worker #1" style="rounded=0;whiteSpace=wrap;html=1;" vertex="1" parent="1">
          <mxGeometry x="740" y="95" width="120" height="60" as="geometry" />
        </mxCell>
        <mxCell id="ybBWGSZVluEt5AXJa25l-15" value="Worker #2" style="rounded=0;whiteSpace=wrap;html=1;" vertex="1" parent="1">
          <mxGeometry x="740" y="205" width="120" height="60" as="geometry" />
        </mxCell>
        <mxCell id="ybBWGSZVluEt5AXJa25l-16" value="Worker #3" style="rounded=0;whiteSpace=wrap;html=1;" vertex="1" parent="1">
          <mxGeometry x="740" y="315" width="120" height="60" as="geometry" />
        </mxCell>
        <mxCell id="ybBWGSZVluEt5AXJa25l-17" value="Worker #n" style="rounded=0;whiteSpace=wrap;html=1;" vertex="1" parent="1">
          <mxGeometry x="740" y="525" width="120" height="60" as="geometry" />
        </mxCell>
        <mxCell id="ybBWGSZVluEt5AXJa25l-20" value="" style="endArrow=classic;html=1;rounded=0;exitX=0;exitY=0.5;exitDx=0;exitDy=0;entryX=0.5;entryY=1;entryDx=0;entryDy=0;entryPerimeter=0;" edge="1" parent="1" source="ybBWGSZVluEt5AXJa25l-14" target="ybBWGSZVluEt5AXJa25l-18">
          <mxGeometry width="50" height="50" relative="1" as="geometry">
            <mxPoint x="590" y="180" as="sourcePoint" />
            <mxPoint x="640" y="130" as="targetPoint" />
          </mxGeometry>
        </mxCell>
        <mxCell id="ybBWGSZVluEt5AXJa25l-22" value="" style="endArrow=classic;html=1;rounded=0;exitX=0;exitY=0.5;exitDx=0;exitDy=0;entryX=0.5;entryY=1;entryDx=0;entryDy=0;entryPerimeter=0;" edge="1" parent="1" source="ybBWGSZVluEt5AXJa25l-15" target="ybBWGSZVluEt5AXJa25l-18">
          <mxGeometry width="50" height="50" relative="1" as="geometry">
            <mxPoint x="610" y="413" as="sourcePoint" />
            <mxPoint x="660" y="363" as="targetPoint" />
          </mxGeometry>
        </mxCell>
        <mxCell id="ybBWGSZVluEt5AXJa25l-23" value="" style="endArrow=classic;html=1;rounded=0;exitX=0;exitY=0.5;exitDx=0;exitDy=0;entryX=0.5;entryY=1;entryDx=0;entryDy=0;entryPerimeter=0;" edge="1" parent="1" source="ybBWGSZVluEt5AXJa25l-16" target="ybBWGSZVluEt5AXJa25l-18">
          <mxGeometry width="50" height="50" relative="1" as="geometry">
            <mxPoint x="570" y="463" as="sourcePoint" />
            <mxPoint x="620" y="413" as="targetPoint" />
          </mxGeometry>
        </mxCell>
        <mxCell id="ybBWGSZVluEt5AXJa25l-24" value="" style="endArrow=classic;html=1;rounded=0;exitX=0;exitY=0.5;exitDx=0;exitDy=0;entryX=0.5;entryY=1;entryDx=0;entryDy=0;entryPerimeter=0;" edge="1" parent="1" source="ybBWGSZVluEt5AXJa25l-17" target="ybBWGSZVluEt5AXJa25l-18">
          <mxGeometry width="50" height="50" relative="1" as="geometry">
            <mxPoint x="585" y="550" as="sourcePoint" />
            <mxPoint x="635" y="500" as="targetPoint" />
          </mxGeometry>
        </mxCell>
        <mxCell id="ybBWGSZVluEt5AXJa25l-25" value="" style="group" vertex="1" connectable="0" parent="1">
          <mxGeometry x="400" y="300" width="210" height="70" as="geometry" />
        </mxCell>
        <mxCell id="ybBWGSZVluEt5AXJa25l-18" value="" style="shape=cylinder3;whiteSpace=wrap;html=1;boundedLbl=1;backgroundOutline=1;size=15;rotation=-90;" vertex="1" parent="ybBWGSZVluEt5AXJa25l-25">
          <mxGeometry x="75" y="-87.5" width="60" height="244.99999999999997" as="geometry" />
        </mxCell>
        <mxCell id="ybBWGSZVluEt5AXJa25l-19" value="Message pipe" style="text;html=1;strokeColor=none;fillColor=none;align=center;verticalAlign=middle;whiteSpace=wrap;rounded=0;" vertex="1" parent="ybBWGSZVluEt5AXJa25l-25">
          <mxGeometry x="75" y="17.5" width="60" height="35" as="geometry" />
        </mxCell>
        <mxCell id="ybBWGSZVluEt5AXJa25l-26" value="Backend" style="rounded=0;whiteSpace=wrap;html=1;" vertex="1" parent="1">
          <mxGeometry x="180" y="305" width="120" height="60" as="geometry" />
        </mxCell>
        <mxCell id="ybBWGSZVluEt5AXJa25l-27" value="" style="endArrow=classic;html=1;rounded=0;exitX=0.5;exitY=0;exitDx=0;exitDy=0;exitPerimeter=0;entryX=1;entryY=0.5;entryDx=0;entryDy=0;" edge="1" parent="1" source="ybBWGSZVluEt5AXJa25l-18" target="ybBWGSZVluEt5AXJa25l-26">
          <mxGeometry width="50" height="50" relative="1" as="geometry">
            <mxPoint x="590" y="420" as="sourcePoint" />
            <mxPoint x="640" y="370" as="targetPoint" />
          </mxGeometry>
        </mxCell>
        <mxCell id="ybBWGSZVluEt5AXJa25l-28" value="Non SQL DB" style="shape=cylinder3;whiteSpace=wrap;html=1;boundedLbl=1;backgroundOutline=1;size=15;" vertex="1" parent="1">
          <mxGeometry x="260" y="445" width="60" height="80" as="geometry" />
        </mxCell>
        <mxCell id="ybBWGSZVluEt5AXJa25l-29" value="Frontend" style="rounded=0;whiteSpace=wrap;html=1;" vertex="1" parent="1">
          <mxGeometry x="180" y="160" width="120" height="60" as="geometry" />
        </mxCell>
        <mxCell id="ybBWGSZVluEt5AXJa25l-31" value="" style="endArrow=classic;startArrow=classic;html=1;rounded=0;entryX=0.5;entryY=1;entryDx=0;entryDy=0;" edge="1" parent="1" source="ybBWGSZVluEt5AXJa25l-26" target="ybBWGSZVluEt5AXJa25l-29">
          <mxGeometry width="50" height="50" relative="1" as="geometry">
            <mxPoint x="130" y="470" as="sourcePoint" />
            <mxPoint x="180" y="420" as="targetPoint" />
          </mxGeometry>
        </mxCell>
        <mxCell id="ybBWGSZVluEt5AXJa25l-32" value="" style="endArrow=classic;startArrow=classic;html=1;rounded=0;entryX=0.75;entryY=1;entryDx=0;entryDy=0;exitX=0.5;exitY=0;exitDx=0;exitDy=0;exitPerimeter=0;" edge="1" parent="1" source="ybBWGSZVluEt5AXJa25l-28" target="ybBWGSZVluEt5AXJa25l-26">
          <mxGeometry width="50" height="50" relative="1" as="geometry">
            <mxPoint x="340" y="525" as="sourcePoint" />
            <mxPoint x="340" y="440" as="targetPoint" />
            <Array as="points">
              <mxPoint x="290" y="400" />
              <mxPoint x="270" y="400" />
            </Array>
          </mxGeometry>
        </mxCell>
        <mxCell id="ybBWGSZVluEt5AXJa25l-33" value="SQL DB" style="shape=cylinder3;whiteSpace=wrap;html=1;boundedLbl=1;backgroundOutline=1;size=15;" vertex="1" parent="1">
          <mxGeometry x="160" y="445" width="60" height="80" as="geometry" />
        </mxCell>
        <mxCell id="ybBWGSZVluEt5AXJa25l-34" value="" style="endArrow=classic;startArrow=classic;html=1;rounded=0;entryX=0.25;entryY=1;entryDx=0;entryDy=0;exitX=0.5;exitY=0;exitDx=0;exitDy=0;exitPerimeter=0;" edge="1" parent="1" source="ybBWGSZVluEt5AXJa25l-33" target="ybBWGSZVluEt5AXJa25l-26">
          <mxGeometry width="50" height="50" relative="1" as="geometry">
            <mxPoint x="300" y="615" as="sourcePoint" />
            <mxPoint x="230" y="540" as="targetPoint" />
            <Array as="points">
              <mxPoint x="190" y="400" />
              <mxPoint x="210" y="400" />
            </Array>
          </mxGeometry>
        </mxCell>
      </root>
    </mxGraphModel>
  </diagram>
</mxfile>
